# xmcd
#
# Track frame offsets:
#	150
#	11367
#	32332
#	54356
#	82453
#	106100
#	123394
#	151741
#
# Disc length: 2478 seconds
#
# Revision: 1
# Processed by: cddbd v1.5.2PL0 Copyright (c) Steve Scherf et al.
# Submitted via: audiograbber 1.83.01
#
DISCID=5209ac08
DTITLE=Ry Cooder - Show Time - Chicken Skin Revue
DYEAR=1976
DGENRE=Blues
TTITLE0=School is out - Live
TTITLE1=Alimony - Live
TTITLE2=Jesus on the mainline - Live
TTITLE3=The dark end of the street - Live
TTITLE4=Viva Sequin - Do Re Mi - Live
TTITLE5=Volver Volver - Live
TTITLE6=How can a poor man stand such times and live - Live
TTITLE7=Smack dab in the middle - Live
EXTD=
EXTT0=
EXTT1=
EXTT2=
EXTT3=
EXTT4=
EXTT5=
EXTT6=
EXTT7=
PLAYORDER=
